<?xml version="1.0" encoding="UTF-8"?>
<svg width="128pt" height="128pt" version="1.1" viewBox="0 0 128 128" xmlns="http://www.w3.org/2000/svg">
 <path d="m48.434 112.49c-1.0625 0-1.9219-0.85938-1.9219-1.9219l0.003906-93.133c0-1.0625 0.85938-1.9219 1.9219-1.9219s1.9219 0.85938 1.9219 1.9219v93.133c-0.003906 1.0625-0.86328 1.9219-1.9258 1.9219z"/>
 <path d="m79.566 112.49c-1.0625 0-1.9219-0.85938-1.9219-1.9219v-93.133c0-1.0625 0.85938-1.9219 1.9219-1.9219s1.9219 0.85938 1.9219 1.9219v93.133c-0.003906 1.0625-0.85938 1.9219-1.9219 1.9219z"/>
 <path d="m110.57 50.355h-93.133c-1.0625 0-1.9219-0.85938-1.9219-1.9219s0.85938-1.9219 1.9219-1.9219h93.133c1.0625 0 1.9219 0.85938 1.9219 1.9219s-0.85938 1.9219-1.9219 1.9219z"/>
 <path d="m110.57 81.484h-93.133c-1.0625 0-1.9219-0.85938-1.9219-1.9219s0.85938-1.9219 1.9219-1.9219h93.133c1.0625 0 1.9219 0.85938 1.9219 1.9219 0 1.0664-0.85938 1.9219-1.9219 1.9219z"/>
 <path d="m70.527 71.73c-0.48828 0-0.98438-0.19141-1.3555-0.5625l-11.621-11.621c-0.75391-0.75391-0.75391-1.9727 0-2.7148 0.75391-0.75391 1.9727-0.75391 2.7148 0l11.621 11.621c0.75391 0.75391 0.75391 1.9727 0 2.7148-0.375 0.37109-0.87109 0.5625-1.3594 0.5625z"/>
 <path d="m58.906 71.73c-0.48828 0-0.98438-0.19141-1.3555-0.5625-0.75391-0.75391-0.75391-1.9727 0-2.7148l11.621-11.621c0.75391-0.75391 1.9727-0.75391 2.7148 0 0.75391 0.75391 0.75391 1.9727 0 2.7148l-11.621 11.621c-0.375 0.37109-0.875 0.5625-1.3594 0.5625z"/>
 <path d="m103.18 71.73c-0.48828 0-0.98438-0.19141-1.3555-0.5625l-11.621-11.621c-0.75391-0.75391-0.75391-1.9727 0-2.7148 0.75391-0.74219 1.9727-0.75391 2.7148 0l11.621 11.621c0.75391 0.75391 0.75391 1.9727 0 2.7148-0.37109 0.37109-0.87109 0.5625-1.3594 0.5625z"/>
 <path d="m91.559 71.73c-0.48828 0-0.98438-0.19141-1.3555-0.5625-0.75391-0.75391-0.75391-1.9727 0-2.7148l11.621-11.621c0.75391-0.75391 1.9727-0.75391 2.7148 0 0.74219 0.75391 0.75391 1.9727 0 2.7148l-11.621 11.621c-0.375 0.37109-0.875 0.5625-1.3594 0.5625z"/>
 <path d="m30.629 71.73c-4.2617 0-7.7305-3.4688-7.7305-7.7305s3.4688-7.7305 7.7305-7.7305c4.2617 0 7.7305 3.4688 7.7305 7.7305 0.003906 4.2617-3.4648 7.7305-7.7305 7.7305zm0-11.621c-2.1523 0-3.8906 1.7422-3.8906 3.8906 0 2.1523 1.7422 3.8906 3.8906 3.8906 2.1523 0 3.8906-1.7422 3.8906-3.8906 0.003907-2.1523-1.7383-3.8906-3.8906-3.8906z"/>
 <path d="m64.719 103.62c-4.2617 0-7.7305-3.4688-7.7305-7.7305s3.4688-7.7305 7.7305-7.7305 7.7305 3.4688 7.7305 7.7305-3.4688 7.7305-7.7305 7.7305zm0-11.609c-2.1367 0-3.8906 1.7422-3.8906 3.8906 0 2.1523 1.7422 3.8906 3.8906 3.8906 2.1523 0 3.8906-1.7422 3.8906-3.8906 0-2.1523-1.7539-3.8906-3.8906-3.8906z"/>
 <path d="m97.371 103.62c-4.2617 0-7.7305-3.4688-7.7305-7.7305s3.4688-7.7305 7.7305-7.7305c4.2617 0 7.7305 3.4688 7.7305 7.7305s-3.4688 7.7305-7.7305 7.7305zm0-11.609c-2.1367 0-3.8906 1.7422-3.8906 3.8906 0 2.1523 1.7422 3.8906 3.8906 3.8906 2.1523 0 3.8906-1.7422 3.8906-3.8906 0-2.1523-1.7539-3.8906-3.8906-3.8906z"/>
 <path d="m36.441 103.62c-0.48828 0-0.98438-0.19141-1.3555-0.5625l-11.621-11.621c-0.75391-0.75391-0.75391-1.9727 0-2.7148s1.9727-0.75391 2.7148 0l11.621 11.621c0.75391 0.75391 0.75391 1.9727 0 2.7148-0.375 0.38281-0.87109 0.5625-1.3594 0.5625z"/>
 <path d="m24.82 103.62c-0.48828 0-0.98437-0.19141-1.3555-0.5625-0.75391-0.75391-0.75391-1.9727 0-2.7148l11.621-11.621c0.75391-0.75391 1.9727-0.75391 2.7148 0 0.74219 0.75391 0.75391 1.9727 0 2.7148l-11.621 11.621c-0.375 0.38281-0.875 0.5625-1.3594 0.5625z"/>
 <path d="m64.719 39.848c-4.2617 0-7.7305-3.4688-7.7305-7.7305 0-4.2617 3.4688-7.7305 7.7305-7.7305s7.7305 3.4688 7.7305 7.7305c0 4.2617-3.4688 7.7305-7.7305 7.7305zm0-11.625c-2.1523 0-3.8906 1.7422-3.8906 3.8906 0 2.1523 1.7422 3.8906 3.8906 3.8906 2.1523 0 3.8906-1.7422 3.8906-3.8906 0-2.1484-1.7422-3.8906-3.8906-3.8906z"/>
 <path d="m103.18 39.848c-0.48828 0-0.98438-0.19141-1.3555-0.5625l-11.621-11.621c-0.75391-0.75391-0.75391-1.9727 0-2.7148 0.75391-0.75391 1.9727-0.75391 2.7148 0l11.621 11.621c0.75391 0.75391 0.75391 1.9727 0 2.7148-0.37109 0.37109-0.87109 0.5625-1.3594 0.5625z"/>
 <path d="m91.559 39.848c-0.48828 0-0.98438-0.19141-1.3555-0.5625-0.75391-0.75391-0.75391-1.9727 0-2.7148l11.621-11.621c0.75391-0.75391 1.9727-0.75391 2.7148 0 0.75391 0.75391 0.75391 1.9727 0 2.7148l-11.621 11.621c-0.375 0.37109-0.875 0.5625-1.3594 0.5625z"/>
 <path d="m36.441 39.848c-0.48828 0-0.98438-0.19141-1.3555-0.5625l-11.621-11.621c-0.75391-0.75391-0.75391-1.9727 0-2.7148 0.75391-0.74219 1.9727-0.75391 2.7148 0l11.621 11.621c0.75391 0.75391 0.75391 1.9727 0 2.7148-0.375 0.37109-0.87109 0.5625-1.3594 0.5625z"/>
 <path d="m24.82 39.848c-0.48828 0-0.98437-0.19141-1.3555-0.5625-0.75391-0.75391-0.75391-1.9727 0-2.7148l11.621-11.621c0.75391-0.75391 1.9727-0.75391 2.7148 0 0.74219 0.75391 0.75391 1.9727 0 2.7148l-11.621 11.621c-0.375 0.37109-0.875 0.5625-1.3594 0.5625z"/>
 <path d="m20.223 108.59c-0.28125 0-0.5625-0.089844-0.79297-0.28125-0.55078-0.44922-0.64063-1.2422-0.20313-1.8047 0.16797-0.20312 0.47266-0.61328 0.91016-1.1914 14.016-18.496 43.957-54.223 86.887-85.672 0.57422-0.42188 1.3711-0.29297 1.793 0.28125s0.29297 1.3711-0.28125 1.793c-42.668 31.246-72.426 66.77-86.352 85.148-0.46094 0.61328-0.78125 1.0234-0.96094 1.2422-0.25781 0.32031-0.62891 0.48438-1 0.48438z"/>
</svg>
